<svg width="47" height="39" viewBox="0 0 47 39" fill="none" xmlns="http://www.w3.org/2000/svg">
<rect opacity="0.25" x="0.749878" y="0.75" width="45.3" height="37.5" rx="18.75" stroke="white" stroke-width="1.5"/>
<path fill-rule="evenodd" clip-rule="evenodd" d="M19.1999 26H15.5999V17H19.1999V26Z" fill="white"/>
<path fill-rule="evenodd" clip-rule="evenodd" d="M17.3892 15H17.3688C16.2944 15 15.5999 14.333 15.5999 13.4995C15.5999 12.6483 16.3156 12 17.4103 12C18.505 12 19.1791 12.6483 19.1999 13.4995C19.1999 14.333 18.505 15 17.3892 15Z" fill="white"/>
<path fill-rule="evenodd" clip-rule="evenodd" d="M32.3998 25.9998H28.8623V21.2954C28.8623 20.1137 28.3503 19.3074 27.0697 19.3074C26.0923 19.3074 25.5102 19.851 25.2545 20.376C25.161 20.5641 25.138 20.8263 25.138 21.0891V26H21.5999C21.5999 26 21.6465 18.0318 21.5999 17.2067H25.138V18.4522C25.6075 17.8535 26.4485 17 28.3267 17C30.6547 17 32.3999 18.2571 32.3999 20.958L32.3998 25.9998Z" fill="white"/>
</svg>
