<svg width="48" height="39" viewBox="0 0 48 39" fill="none" xmlns="http://www.w3.org/2000/svg">
<rect opacity="0.25" x="1.34985" y="0.75" width="45.3" height="37.5" rx="18.75" stroke="white" stroke-width="1.5"/>
<path fill-rule="evenodd" clip-rule="evenodd" d="M23.7746 16.9262L23.8084 17.402L23.2448 17.3437C21.1933 17.1204 19.4011 16.363 17.8794 15.091L17.1355 14.4599L16.9438 14.926C16.538 15.9649 16.7973 17.0621 17.6427 17.8001C18.0936 18.2079 17.9921 18.2661 17.2144 18.0234C16.9438 17.9457 16.7071 17.8874 16.6846 17.9166C16.6057 17.9845 16.8762 18.8681 17.0904 19.2177C17.3834 19.7032 17.9808 20.179 18.6346 20.4605L19.1869 20.6839L18.5332 20.6936C17.9019 20.6936 17.8794 20.7033 17.947 20.9072C18.1725 21.5383 19.0629 22.2083 20.0549 22.4996L20.7537 22.7035L20.145 23.0142C19.2433 23.4609 18.1837 23.7133 17.1242 23.7328C16.6169 23.7425 16.1999 23.7813 16.1999 23.8104C16.1999 23.9075 17.5751 24.4513 18.3754 24.6649C20.7763 25.296 23.628 25.0242 25.7697 23.9464C27.2914 23.1793 28.8131 21.6549 29.5232 20.179C29.9065 19.3925 30.2897 17.9554 30.2897 17.266C30.2897 16.8194 30.3235 16.7611 30.9548 16.2271C31.3267 15.9164 31.6762 15.5765 31.7438 15.4794C31.8565 15.2949 31.8452 15.2949 31.2704 15.46C30.3123 15.7513 30.177 15.7124 30.6504 15.2755C30.9998 14.9648 31.4169 14.4016 31.4169 14.2366C31.4169 14.2074 31.2478 14.256 31.0562 14.3434C30.8533 14.4405 30.4024 14.5861 30.0643 14.6735L29.4556 14.8386L28.9033 14.5181C28.5989 14.3434 28.1706 14.1492 27.9452 14.0909C27.3703 13.955 26.4911 13.9744 25.9726 14.1297C24.5636 14.5667 23.6731 15.693 23.7746 16.9262Z" fill="white"/>
</svg>
